<?xml version="1.0" standalone="no"?><!DOCTYPE svg PUBLIC "-//W3C//DTD SVG 1.1//EN" "http://www.w3.org/Graphics/SVG/1.1/DTD/svg11.dtd"><svg class="icon" width="24px" height="24.00px" viewBox="0 0 1024 1024" version="1.1" xmlns="http://www.w3.org/2000/svg"><path  d="M192 192a64 64 0 0 0-64 64v640a64 64 0 0 0 64 64h512a64 64 0 0 0 64-64V256a64 64 0 0 0-64-64H192z m0-64h512a128 128 0 0 1 128 128v640a128 128 0 0 1-128 128H192a128 128 0 0 1-128-128V256a128 128 0 0 1 128-128z"  /><path  d="M484.928 64H832a64 64 0 0 1 64 64v650.048l64 111.168V128a128 128 0 0 0-128-128H448.128l36.8 64z m0 0H832a64 64 0 0 1 64 64v650.048l64 111.168V128a128 128 0 0 0-128-128H448.128l36.8 64zM237.824 535.168l42.624-47.744 109.568 97.856a32 32 0 0 0 43.648-0.96L639.296 384l44.672 45.824-205.632 200.384a96 96 0 0 1-130.944 2.88L237.824 535.04zM259.2 809.472v-64h388.288v64z"  /></svg>
