<?xml version="1.0" standalone="no"?><!DOCTYPE svg PUBLIC "-//W3C//DTD SVG 1.1//EN" "http://www.w3.org/Graphics/SVG/1.1/DTD/svg11.dtd"><svg t="1714120423620" class="icon" viewBox="0 0 1024 1024" version="1.1" xmlns="http://www.w3.org/2000/svg" p-id="5114" width="24" height="24" xmlns:xlink="http://www.w3.org/1999/xlink"><path d="M865.17 472.74c-21.6-45.49-51.58-98.11-89.11-156.42-63.46-98.6-125.86-178.52-128.49-181.88-5.69-7.26-14.4-11.51-23.62-11.51s-17.94 4.24-23.62 11.51c-2.63 3.35-65.03 83.28-128.49 181.88-37.53 58.31-67.51 110.94-89.11 156.42-28.63 60.3-42.55 107.58-42.55 144.55 0 75.8 29.52 147.06 83.11 200.66 53.6 53.6 124.86 83.11 200.66 83.11s147.06-29.52 200.66-83.11c53.6-53.6 83.11-124.86 83.11-200.66 0-36.96-13.92-84.25-42.55-144.55zM623.95 841.06c-123.39 0-223.77-100.38-223.77-223.77 0-50.74 43.28-145.97 121.87-268.13 38.75-60.23 77.87-114.32 101.9-146.59 23.97 32.18 62.95 86.07 101.66 146.22 78.75 122.35 122.11 217.7 122.11 268.5 0 123.39-100.38 223.77-223.77 223.77z" p-id="5115"></path><path d="M291.96 681.51c-72.61 0-131.69-59.07-131.69-131.69 0-14.1 7.39-58.39 75.83-164.81 20.3-31.56 40.77-60.47 55.86-81.09 13.66 18.67 31.73 44.13 50.09 72.2 9.07 13.87 27.66 17.76 41.53 8.69 13.87-9.07 17.76-27.66 8.69-41.53-38.71-59.19-75.15-105.85-76.68-107.81-5.69-7.26-14.4-11.51-23.62-11.51s-17.94 4.24-23.62 11.51c-1.68 2.15-41.74 53.46-82.45 116.7-57.61 89.51-85.62 154.16-85.62 197.65 0 105.7 85.99 191.69 191.69 191.69 16.57 0 30-13.43 30-30s-13.44-30-30.01-30z"  p-id="5116"></path></svg>
