<?xml version="1.0" standalone="no"?><!DOCTYPE svg PUBLIC "-//W3C//DTD SVG 1.1//EN" "http://www.w3.org/Graphics/SVG/1.1/DTD/svg11.dtd"><svg t="1702948606414" class="icon" viewBox="0 0 1024 1024" version="1.1" xmlns="http://www.w3.org/2000/svg" p-id="11672" xmlns:xlink="http://www.w3.org/1999/xlink" width="24" height="24"><path d="M892.169851 850.853335a176.243515 176.243515 0 0 0-63.447666-12.236335c-47.837526 0-73.7705 16.13887-108.465294 54.408891l-3.474515 4.003245v-178.761279h153.583634v-102.145706h-153.583634V495.999607h153.583634v-102.548549h-153.583634v-119.921123h153.583634V171.207986h-153.583634V0H614.334538v887.235032a124.780409 124.780409 0 0 0-103.228344-48.592855c-51.463106 0-78.0507 18.480391-116.018589 62.944113-21.426176 25.177645-28.022719 29.684443-42.801996 29.684443s-21.350643-4.607509-42.801997-29.684443c-38.093777-44.514076-64.479949-62.944113-115.817167-62.944113a207.060953 207.060953 0 0 0-120.097366 38.521797 197.946645 197.946645 0 0 0-40.586364 36.432053q-16.843845 16.063338-32.982715 32.302918l70.119741 62.944113c6.596543-7.024563 17.951661-18.404858 31.320991-30.892971l5.035529-5.639792A122.010868 122.010868 0 0 1 193.867867 930.968602c14.653389 0 21.350643 4.607509 42.801996 29.684443 38.194487 44.514076 64.479949 62.944113 115.817167 62.944113s78.0507-18.581102 116.018588-62.944113c21.426176-25.177645 28.022719-29.684443 42.801997-29.684443s21.350643 4.607509 42.801996 29.684443a163.15114 163.15114 0 0 0 122.866908 63.346955c52.06737 0 84.445821-34.719972 108.994025-62.944113 21.426176-25.177645 28.123429-29.684443 42.801997-29.684443a144.922525 144.922525 0 0 1 79.410292 36.104743 338.437904 338.437904 0 0 1 42.801996 39.906567l73.166237-59.368887a549.476925 549.476925 0 0 0-131.804972-97.110176z"  p-id="11673"></path><path d="M200.03639 445.165941a224.458705 224.458705 0 0 0-26.461705 90.639522 190.922082 190.922082 0 1 0 381.818986 0 229.720833 229.720833 0 0 0-26.033685-90.639522 837.987559 837.987559 0 0 0-58.663913-101.868751 1646.643161 1646.643161 0 0 0-90.790588-123.496349 18.127904 18.127904 0 0 0-30.03693 0c-1.561014 1.913501-13.444862 16.315114-30.641194 38.974994-15.106587 19.688918-37.565046 50.35529-60.149394 84.521355a838.063092 838.063092 0 0 0-59.091933 101.868751z m176.243515 167.733471a97.361953 97.361953 0 0 0 60.753657-89.204396 22.659881 22.659881 0 0 1 45.319761 0.176244 142.329227 142.329227 0 0 1-88.95262 130.168424 22.98719 22.98719 0 0 1-8.686287 1.737258 22.483637 22.483637 0 0 1-8.686288-43.381083z m-219.473532-326.554055a106.123774 106.123774 0 0 0 103.530476-104.13474 124.604165 124.604165 0 0 0-14.32608-49.197118 467.926532 467.926532 0 0 0-31.849721-55.164221q-15.534607-23.490743-32.730938-45.898846a410.395614 410.395614 0 0 0-16.667601-21.426176 9.718571 9.718571 0 0 0-16.239581 0 420.718448 420.718448 0 0 0-16.667601 21.098866c-8.157557 10.675321-20.393892 27.342922-32.730939 45.898847a467.926532 467.926532 0 0 0-31.849721 55.189398 124.604165 124.604165 0 0 0-14.32608 49.549605 106.123774 106.123774 0 0 0 103.60601 104.13474z m6.344767-62.641981A52.873055 52.873055 0 0 0 196.385631 175.286765a12.009737 12.009737 0 1 1 24.044651 0 77.245015 77.245015 0 0 1-48.240368 70.799537 12.94131 12.94131 0 0 1-4.683042 0.956751 12.160803 12.160803 0 0 1-4.683042-23.440388z"  p-id="11674"></path></svg>
