<?xml version="1.0" standalone="no"?><!DOCTYPE svg PUBLIC "-//W3C//DTD SVG 1.1//EN" "http://www.w3.org/Graphics/SVG/1.1/DTD/svg11.dtd"><svg t="1702948666871" class="icon" viewBox="0 0 1024 1024" version="1.1" xmlns="http://www.w3.org/2000/svg" p-id="12757" xmlns:xlink="http://www.w3.org/1999/xlink" width="24" height="24"><path d="M423.552 143.68h174.528V32h211.84v111.68H1024v111.744H0V143.68h211.84V32h211.712v111.68zM11.648 306.624h174.528v386.304H11.648V306.624z m549.248 0h174.528v386.304H560.896V306.624z m-274.624 0H460.8v386.304H286.272V306.624z m551.552 0h174.528v386.304h-174.528V306.624z m30.272 556.16c-44.224 0-88.448-11.584-130.368-34.88-69.76-34.88-141.952-37.184-211.776 0-88.448 46.592-176.832 46.592-265.28 0-69.824-37.184-139.648-37.184-209.472 0-16.32 7.04-34.88 2.368-41.92-13.952a32 32 0 0 1 14.016-41.856c88.384-46.592 179.2-46.592 267.584 0 69.824 37.184 137.344 37.184 207.168 0 86.08-46.592 179.2-46.592 269.952 0 67.52 37.184 135.04 37.184 204.8 0 16.32-7.04 34.88-2.368 41.92 13.952 6.976 16.256 2.304 34.88-14.016 41.856-44.16 23.296-88.384 34.944-132.608 34.944z m0 111.744c-44.224 0-88.448-11.648-130.368-34.88-69.76-34.944-141.952-37.248-211.776 0-88.448 46.528-176.832 46.528-265.28 0-69.824-37.248-139.648-37.248-209.472 0-16.32 6.976-34.88 2.304-41.92-13.952a32 32 0 0 1 14.016-41.92c88.384-46.528 179.2-46.528 267.584 0 69.824 37.248 137.344 37.248 207.168 0 86.08-46.528 179.2-46.528 269.952 0 67.52 37.248 135.04 37.248 204.8 0 16.32-6.976 34.88-2.304 41.92 13.952 6.976 16.32 2.304 34.944-14.016 41.92-44.16 23.232-88.384 34.88-132.608 34.88z"  p-id="12758"></path></svg>
