<?xml version="1.0" standalone="no"?><!DOCTYPE svg PUBLIC "-//W3C//DTD SVG 1.1//EN" "http://www.w3.org/Graphics/SVG/1.1/DTD/svg11.dtd"><svg t="1702948387451" class="icon" viewBox="0 0 1024 1024" version="1.1" xmlns="http://www.w3.org/2000/svg" p-id="7773" xmlns:xlink="http://www.w3.org/1999/xlink" width="24" height="24"><path d="M445.9776 915.392c-12.8256 0-23.2576 10.2528-23.2576 22.848 0 12.6208 10.432 22.8864 23.2576 22.8864 12.8 0 23.2192-10.2656 23.2192-22.8864 0.0128-12.5952-10.4064-22.848-23.2192-22.848zM313.7792 863.2192c-12.8256 0-23.2576 10.2656-23.2576 22.8864s10.432 22.8864 23.2576 22.8864c12.8 0 23.2192-10.2656 23.2192-22.8864s-10.4192-22.8864-23.2192-22.8864zM445.9776 649.1904c-12.8256 0-23.2576 10.2656-23.2576 22.8864v189.056c0 12.608 10.432 22.8608 23.2576 22.8608 12.8 0 23.2192-10.2528 23.2192-22.8608v-189.056c0.0128-12.6208-10.4064-22.8864-23.2192-22.8864zM313.7792 597.056c-12.8256 0-23.2576 10.2656-23.2576 22.8864V808.96c0 12.6208 10.432 22.8864 23.2576 22.8864 12.8 0 23.2192-10.2656 23.2192-22.8864V619.9296c0-12.608-10.4192-22.8736-23.2192-22.8736zM710.4 915.392c-12.8 0-23.2192 10.2528-23.2192 22.848 0 12.6208 10.4192 22.8864 23.2192 22.8864 12.8256 0 23.2576-10.2656 23.2576-22.8864-0.0128-12.5952-10.4448-22.848-23.2576-22.848zM710.4 649.1904c-12.8 0-23.2192 10.2656-23.2192 22.8864v189.056c0 12.608 10.4192 22.8608 23.2192 22.8608 12.8256 0 23.2576-10.2528 23.2576-22.8608v-189.056c-0.0128-12.6208-10.4448-22.8864-23.2576-22.8864z" p-id="7774"></path><path d="M554.9312 886.1056a23.2576 22.8864 0 1 0 46.5152 0 23.2576 22.8864 0 1 0-46.5152 0Z" p-id="7775"></path><path d="M857.0496 353.6896l-1.6128-0.5376-0.4608-1.6256c-19.5584-69.0176-60.224-128.2304-117.632-171.2512-57.5744-43.136-126.6304-65.9456-199.7184-65.9456-60.416 0-119.7568 16.5376-171.6096 47.808-51.712 31.1936-93.6832 75.6352-121.3696 128.5376l-0.7936 1.5232-1.7152 0.1664C106.0224 305.9584 3.3664 417.9968 3.3664 552.9728c0 58.2016 18.9824 113.28 54.912 159.296 34.2144 43.84 82.4704 76.3648 136.1536 91.8528l0.2304-0.9216 3.072 0.704c0.5632 0.128 1.1136 0.2816 1.664 0.4224 1.1392 0.3072 2.112 0.576 3.072 0.576 11.7888 0 21.376-9.4464 21.376-21.056 0-9.5744-6.8864-17.8176-16.7552-20.0448l-3.1872-0.7168 0.3456-1.3952c-48.0512-16.9216-85.9264-43.264-112.6016-78.336-27.7248-36.4544-41.792-80.32-41.792-130.3808 0-55.4112 21.1072-108.0192 59.4432-148.1344 38.2592-40.0384 90.1504-64 146.1376-67.4688l0.1792-0.0128 0.1792 0.0128c64.7936 3.1232 131.392 38.2464 166.6816 87.6672l0.4224-0.1792 1.4208 2.4576c4.288 7.3984 11.7376 11.8144 19.9424 11.8144 12.8896 0 23.3728-10.3168 23.3728-23.0016 0-3.1104-0.6528-6.1952-1.9584-9.152l-0.2688-0.6272c-0.3072-0.4096-0.6272-0.8192-0.9472-1.2416-0.5632-0.7168-1.1392-1.472-1.7024-2.2912-0.2688-0.3584-0.576-0.832-0.8832-1.3056-0.4864-0.7424-0.896-1.3696-1.3696-1.8304l-0.4096-0.4736c-39.68-56.4352-93.696-90.8288-160.5376-102.2336l-4.736-0.8064 2.56-4.0576c25.28-40 60.736-73.344 102.5408-96.448 42.1248-23.2832 89.7536-35.584 137.7152-35.584 132.5696 0 246.0032 88.9984 275.84 216.4352l3.136 13.44 13.5168 3.5328c84.9024 22.2208 144.192 98.1632 144.192 184.6912 0 88.6784-53.4528 163.1104-133.184 185.7408l-1.2288 0.4864c-8.2176 3.2128-13.5296 10.8544-13.5296 19.456 0 11.6096 9.6 21.056 21.4144 21.056 0.6656 0 1.4336-0.2048 2.304-0.448 0.576-0.1536 1.152-0.3072 1.7408-0.4352l0.5248-0.1024c2.2656-0.4864 4.0448-1.1136 5.5808-1.9456l0.4992-0.2176C955.5456 768.8832 1020.8 679.04 1020.8 578.176c0-101.824-65.8048-192.0384-163.7504-224.4864z" p-id="7776"></path><path d="M578.1888 597.056c-12.8256 0-23.2576 10.2656-23.2576 22.8864V808.96c0 12.6208 10.432 22.8864 23.2576 22.8864s23.2576-10.2656 23.2576-22.8864V619.9296c0-12.608-10.432-22.8736-23.2576-22.8736z" p-id="7777"></path></svg>